<svg width="640" height="760" viewBox="0 0 640 760" xmlns="http://www.w3.org/2000/svg">
  <defs>
    <linearGradient id="bg4" x1="0" x2="1" y1="0" y2="1">
      <stop offset="0%" stop-color="#f5efe8"/>
      <stop offset="100%" stop-color="#d8d1c6"/>
    </linearGradient>
    <linearGradient id="glass4" x1="0" x2="1" y1="0" y2="1">
      <stop offset="0%" stop-color="#fffaf3"/>
      <stop offset="45%" stop-color="#efe7db"/>
      <stop offset="100%" stop-color="#d7ceb8"/>
    </linearGradient>
    <linearGradient id="gold4" x1="0" x2="1" y1="0" y2="0">
      <stop offset="0%" stop-color="#f8e6bb"/>
      <stop offset="35%" stop-color="#d7ae62"/>
      <stop offset="70%" stop-color="#ac7a34"/>
      <stop offset="100%" stop-color="#f0d598"/>
    </linearGradient>
    <filter id="shadow4" x="-20%" y="-20%" width="140%" height="140%">
      <feDropShadow dx="0" dy="22" stdDeviation="18" flood-color="#4d473d" flood-opacity="0.18"/>
    </filter>
  </defs>

  <rect width="640" height="760" fill="url(#bg4)"/>
  <ellipse cx="325" cy="668" rx="200" ry="34" fill="#867c68" opacity="0.14"/>

  <g filter="url(#shadow4)">
    <rect x="200" y="116" width="240" height="486" rx="18" fill="url(#glass4)"/>
    <rect x="200" y="116" width="240" height="486" rx="18" fill="none" stroke="#cbba94" stroke-width="2"/>

    <rect x="246" y="76" width="148" height="60" rx="16" fill="url(#gold4)"/>
    <rect x="268" y="40" width="104" height="42" rx="10" fill="#f6efe7"/>

    <rect x="228" y="254" width="184" height="170" rx="8" fill="#fbfaf7" opacity="0.8"/>
    <rect x="228" y="254" width="184" height="170" rx="8" fill="none" stroke="#c3aa74" stroke-width="2"/>

    <text x="320" y="300" text-anchor="middle" font-size="28" font-family="Georgia, serif" fill="#876b2d" letter-spacing="5">AURA</text>
    <text x="320" y="338" text-anchor="middle" font-size="28" font-family="Georgia, serif" fill="#876b2d" letter-spacing="5">NOIR</text>
    <text x="320" y="382" text-anchor="middle" font-size="14" fill="#a8813b" font-family="Arial, sans-serif" letter-spacing="4">BLANCHE</text>
    <line x1="256" y1="396" x2="384" y2="396" stroke="#b48233" stroke-width="1.5"/>
    <text x="320" y="430" text-anchor="middle" font-size="32" fill="#876b2d" font-family="Georgia, serif">$185</text>
  </g>
</svg>
