<svg width="640" height="760" viewBox="0 0 640 760" xmlns="http://www.w3.org/2000/svg">
  <defs>
    <linearGradient id="bg1" x1="0" x2="1" y1="0" y2="1">
      <stop offset="0%" stop-color="#1a1715"/>
      <stop offset="100%" stop-color="#080807"/>
    </linearGradient>
    <linearGradient id="bottleGlass" x1="0" x2="1" y1="0" y2="1">
      <stop offset="0%" stop-color="#1d1b1a"/>
      <stop offset="45%" stop-color="#080807"/>
      <stop offset="100%" stop-color="#050505"/>
    </linearGradient>
    <linearGradient id="gold" x1="0" x2="1" y1="0" y2="0">
      <stop offset="0%" stop-color="#f0dc9d"/>
      <stop offset="35%" stop-color="#d9ac52"/>
      <stop offset="68%" stop-color="#b57d26"/>
      <stop offset="100%" stop-color="#f0d38b"/>
    </linearGradient>
    <linearGradient id="labelGlow" x1="0" x2="0" y1="0" y2="1">
      <stop offset="0%" stop-color="#26231e"/>
      <stop offset="100%" stop-color="#0f0e0d"/>
    </linearGradient>
    <filter id="shadow" x="-20%" y="-20%" width="140%" height="140%">
      <feDropShadow dx="0" dy="24" stdDeviation="18" flood-color="#000" flood-opacity="0.35"/>
    </filter>
  </defs>

  <rect width="640" height="760" fill="url(#bg1)"/>
  <ellipse cx="325" cy="670" rx="200" ry="34" fill="#000" opacity="0.28"/>

  <g filter="url(#shadow)">
    <rect x="200" y="115" width="240" height="490" rx="18" fill="url(#bottleGlass)"/>
    <rect x="200" y="115" width="240" height="490" rx="18" fill="none" stroke="#2a241e" stroke-width="2"/>

    <rect x="244" y="72" width="152" height="60" rx="14" fill="url(#gold)"/>
    <rect x="265" y="38" width="110" height="42" rx="10" fill="#1b1715"/>
    <rect x="255" y="48" width="130" height="18" rx="8" fill="#d5a955" opacity="0.4"/>

    <path d="M220 165h200v32c0 9-7 16-16 16H236c-9 0-16-7-16-16v-32z" fill="#0f0d0c" opacity="0.8"/>
    <rect x="228" y="250" width="184" height="180" rx="8" fill="url(#labelGlow)" opacity="0.92"/>
    <rect x="228" y="250" width="184" height="180" rx="8" fill="none" stroke="#5a4630" stroke-width="2" opacity="0.7"/>

    <text x="320" y="300" text-anchor="middle" font-size="28" font-family="Georgia, serif" fill="#e1c68b" letter-spacing="5">AURA</text>
    <text x="320" y="338" text-anchor="middle" font-size="28" font-family="Georgia, serif" fill="#e1c68b" letter-spacing="5">NOIR</text>
    <text x="320" y="382" text-anchor="middle" font-size="14" fill="#c49d59" font-family="Arial, sans-serif" letter-spacing="4">OBSIDIAN</text>
    <line x1="255" y1="396" x2="385" y2="396" stroke="#a97d36" stroke-width="1.4"/>
    <text x="320" y="430" text-anchor="middle" font-size="32" fill="#e6c889" font-family="Georgia, serif">$195</text>
  </g>
</svg>
